<?xml version="1.0" encoding="UTF-8" standalone="no"?>
<svg xmlns:inkscape="http://www.inkscape.org/namespaces/inkscape" xmlns:rdf="http://www.w3.org/1999/02/22-rdf-syntax-ns#" xmlns="http://www.w3.org/2000/svg" xmlns:xlink="http://www.w3.org/1999/xlink" xmlns:ns1="http://sozi.baierouge.fr" xmlns:cc="http://creativecommons.org/ns#" xmlns:dc="http://purl.org/dc/elements/1.1/" xmlns:sodipodi="http://sodipodi.sourceforge.net/DTD/sodipodi-0.dtd" id="svg2" sodipodi:docname="goldbitcoin.svg" viewBox="0 0 251 251" sodipodi:version="0.32" version="1.0" inkscape:output_extension="org.inkscape.output.svg.inkscape" inkscape:version="0.46" xmlns:svg="http://www.w3.org/2000/svg">
  <sodipodi:namedview id="base" bordercolor="#666666" inkscape:pageshadow="2" guidetolerance="10.0" pagecolor="#ffffff" gridtolerance="10.0" inkscape:zoom="0.53182881" objecttolerance="10.0" borderopacity="1.0" inkscape:current-layer="g9054" inkscape:cx="381.68363" inkscape:cy="506.54685" inkscape:window-y="0" inkscape:window-x="4" inkscape:window-height="1006" showgrid="false" inkscape:pageopacity="0.0" inkscape:window-width="1676"/>
  <title id="title7506">Coin thumbs up</title>
  <g id="layer1" transform="translate(2633 -4398.2)">
    <g id="g9050" transform="translate(-381.56,2460.3)">
      <g id="g9054" transform="matrix(.59541 0 0 .59541 -743.86 1531)">
        <rect id="rect9052" style="fill:none" height="421.56" width="421.56" y="683.35" x="-2532"/>
        <path id="path9056" style="fill:#d5b04f" d="m-2330.3 692.27c-111.5 0-201.8 90.35-201.8 201.84s90.3 201.89 201.8 201.89c5.4 0 10.8-0.2 16.1-0.6-104-8.2-185.9-95.2-185.9-201.3 0-106.09 81.9-193.05 185.9-201.22-5.3-0.41-10.7-0.62-16.1-0.62v0.01z"/>
        <path id="path9058" style="fill-rule:evenodd;fill:#c89c31" d="m-2359.4 694.36c-12.9 1.86-25.4 4.94-37.3 9.12 8.5 0.51 18.7 0.81 29.7 0.85 11-4.01 22.5-7.09 34.3-9.13-7.7-0.46-16.8-0.76-26.7-0.84zm-37.2 23.12c-12.3 0-23.7 0.35-33.1 0.94-4 2.26-7.9 4.64-11.7 7.16 7.4 0.82 17.7 1.43 29.5 1.71 5.2-3.5 10.4-6.78 15.9-9.81h-0.6zm-35.3 23.19c-11.7 0.1-22.3 0.53-30.8 1.16-2.6 2.26-5.2 4.58-7.6 6.96 7.6 0.83 18.2 1.42 30.3 1.69 3.4-3.4 7-6.66 10.7-9.81-0.9 0-1.7-0.01-2.6 0zm-24.3 23.12c-10.9 0.1-20.9 0.47-29.1 1.04-2 2.43-4 4.93-5.9 7.46 8.2 0.74 18.9 1.26 31 1.44 2.5-3.39 5.1-6.72 7.8-9.94-1.2 0-2.5-0.01-3.8 0zm-13.1 23.13c-12.2 0.02-23.4 0.37-32.6 0.97-1.6 2.54-3.1 5.1-4.6 7.72 8.5 0.68 19.3 1.15 31.3 1.28 1.9-3.39 3.9-6.71 5.9-9.97zm-18.6 23.16c-9.5 0-18.3 0.2-26.2 0.56-1.3 2.87-2.5 5.78-3.7 8.72 8.7 0.47 18.9 0.72 29.9 0.72h1.8c1.4-3.37 2.8-6.7 4.3-9.97-2-0.02-4.1-0.03-6.1-0.03zm-14.8 23.15c-7.1 0-13.9 0.14-20.2 0.35-0.9 3.03-1.8 6.12-2.6 9.21 7 0.27 14.7 0.44 22.8 0.44 3.1 0 6.2-0.02 9.1-0.06 0.9-3.32 1.8-6.59 2.9-9.84-3.9-0.08-7.9-0.1-12-0.1zm-17.6 23.16c-2.8 0.02-5.6 0.09-8.3 0.15-0.6 3.2-1.1 6.41-1.6 9.66 5 0.12 10.3 0.19 15.7 0.19 5.7 0 11.2-0.09 16.3-0.22 0.5-3.2 1-6.38 1.6-9.53-5.6-0.17-11.6-0.25-17.9-0.25-1.9 0-3.9-0.02-5.8 0zm5.8 23.12c-5.9 0-11.7 0.07-17.1 0.22-0.2 3.16-0.4 6.33-0.4 9.53 5.5 0.16 11.4 0.25 17.5 0.25 5 0 9.9-0.05 14.5-0.15 0.1-3.26 0.2-6.48 0.4-9.69-4.7-0.11-9.7-0.16-14.9-0.16zm0 23.16c-6.1 0-11.9 0.09-17.4 0.25 0.1 3.2 0.3 6.37 0.6 9.53 5.3 0.14 11 0.22 16.8 0.22 5.3 0 10.4-0.07 15.3-0.19-0.3-3.19-0.5-6.42-0.7-9.66-4.6-0.1-9.5-0.15-14.6-0.15zm0 23.15c-5.2 0-10.3 0.08-15.1 0.19 0.5 3.26 1.1 6.49 1.8 9.69 4.3 0.09 8.7 0.12 13.3 0.12 6.6 0 12.9-0.1 18.7-0.28-0.6-3.14-1.2-6.3-1.8-9.5-5.3-0.14-11-0.22-16.9-0.22zm-5.8 23.16c-1.4 0.01-2.8 0.04-4.2 0.06 0.9 3.33 1.9 6.65 3 9.91 2.3 0.02 4.7 0.03 7 0.03 9 0 17.4-0.18 24.9-0.5-1-3.01-1.9-6.03-2.8-9.09-6.8-0.25-14.2-0.41-22.1-0.41-1.9 0-3.9-0.02-5.8 0zm22.1 23.13c-6.4 0-12.5 0.08-18.2 0.25 1.4 3.23 2.8 6.44 4.3 9.59 4.5 0.1 9.1 0.16 13.9 0.16 6.3 0 12.4-0.09 18.1-0.25-1.5-3.15-2.9-6.36-4.3-9.6-4.4-0.1-9-0.15-13.8-0.15zm5.9 23.15c-4.4 0-8.6 0.05-12.6 0.13 1.9 3.34 4 6.61 6.1 9.81 2.1 0.1 4.3 0.1 6.5 0.1 9.1 0 17.6-0.2 25.2-0.6-1.9-3-3.8-6.02-5.6-9.13-6.2-0.19-12.7-0.31-19.6-0.31zm26.5 23.14c-8.3 0-16.1 0.2-23.2 0.5 2.6 3.2 5.2 6.3 7.9 9.3 4.9 0.1 10 0.2 15.3 0.2 5.8 0 11.4-0.1 16.7-0.2-2.8-3.2-5.5-6.4-8.1-9.7-2.8-0.1-5.7-0.1-8.6-0.1zm14.7 23.1c-5.8 0-11.5 0.1-16.8 0.3 3.7 3.3 7.4 6.6 11.3 9.7h5.5c9.3 0 18.1-0.1 25.9-0.5-3.7-3-7.3-6.1-10.7-9.3-4.8-0.1-9.9-0.2-15.2-0.2zm36.9 23.2c-8.3 0-16.2 0.2-23.3 0.4 5.5 3.5 11.1 6.7 16.9 9.6h6.4c8.9 0 17.2-0.2 24.7-0.5-5.6-2.9-11.2-6-16.6-9.4-2.6-0.1-5.3-0.1-8.1-0.1zm49.3 23.2c-7.4 0-14.5 0.1-21 0.3 17.7 5.1 36.4 7.8 55.7 7.8 4.5 0 8.9-0.2 13.4-0.5 0.6 0 1.2-0.1 1.8-0.2-13.7-1.1-27-3.6-39.7-7.4h-10.2z"/>
        <path id="path9060" style="fill:#eed175" d="m-2110.5 894.12c0 111.48-90.4 201.88-201.9 201.88s-201.9-90.4-201.9-201.88 90.4-201.86 201.9-201.86 201.9 90.38 201.9 201.86z"/>
        <path id="path9062" style="fill:#c89c31" d="m-2115.6 895.61c0 108.59-88.1 196.69-196.7 196.69-108.7 0-196.7-88.1-196.7-196.69 0-108.64 88-196.71 196.7-196.71 108.6 0 196.7 88.07 196.7 196.71z"/>
        <path id="path9064" style="fill:#ebc859" d="m-2122 896.06c0 105.14-85.2 190.44-190.4 190.44-105.1 0-190.4-85.3-190.4-190.44 0-105.16 85.3-190.42 190.4-190.42 105.2 0 190.4 85.26 190.4 190.42z"/>
        <path id="path9066" style="fill:#d2aa48" d="m-2450.8 763.6c-72.2 76.44-70.8 196.55 5.6 268.8 20.6 19.5 42.9 35.9 70.2 43.2-16.8-8.7-31-20.6-45.4-34.2-83-78.4-86.8-208.97-8.7-291.68 7.6-7.99 16-13.79 24.5-20.3-16.6 9.23-32.5 19.67-46.2 34.18z"/>
        <path id="path9068" style="fill:#f7e587" d="m-2196.9 1048c83.8-63.62 100.1-183.08 36.4-266.81-17.1-22.62-38.4-40.29-61.9-52.82 15.1 11.31 28.9 24.86 40.9 40.65 69.1 90.83 51.6 220.29-39.1 289.18-8.7 6.6-17.8 12.4-27.2 17.5 17.9-6.4 35-15.6 50.9-27.7z"/>
        <path id="path9070" style="opacity:.5;fill:#f7e587" d="m-2305.6 706.4c-35.9 0-68.6 3.52-100.8 24.43-50.3 32.62-79.1 96.39-79.1 161.94 0 15.83 2 31.2 5.6 45.87 34.8 43.71 77.7 49.3 125.3 49.3 99.8 0 178.7-82.52 178.7-185.01 0-15.81-2.5-30.29-6.2-44.94-32.2-30.95-75.8-51.6-123.5-51.6v0.01z"/>
        <rect id="rect3433" style="fill-rule:evenodd;fill:#d2aa48" ry="0" height="39.828" width="41.099" y="977.2" x="-2370.4"/>
        <path id="text2635" style="fill:#d2aa48" d="m-2397.3 804.41h94.4c18.7 0 32.6 0.69 41.8 2.07 9.2 1.29 17.4 4.05 24.6 8.28 7.3 4.23 13.4 9.89 18.2 16.97 4.9 6.99 7.3 14.85 7.3 23.59 0 9.48-3 18.17-9 26.08-5.9 7.91-14 13.84-24.2 17.8 14.4 3.58 25.5 9.7 33.2 18.34 7.7 8.65 11.6 18.81 11.6 30.49 0 9.2-2.5 18.17-7.6 26.91-4.9 8.64-11.7 15.59-20.4 20.83-8.6 5.13-19.3 8.33-31.9 9.53-8 0.7-27.2 1.2-57.6 1.4h-80.4v-202.29m47.7 33.67v46.77h31.3c18.6 0 30.1-0.23 34.6-0.69 8.2-0.83 14.6-3.22 19.2-7.18 4.7-4.04 7.1-9.33 7.1-15.86 0-6.26-2.1-11.32-6.1-15.18-4-3.95-10-6.35-17.9-7.17-4.8-0.46-18.3-0.69-40.8-0.69h-27.4m0 80.43v54.08h44.2c17.2 0 28.1-0.41 32.7-1.24 7.1-1.1 12.8-3.77 17.2-8 4.5-4.32 6.8-10.07 6.8-17.25 0-6.07-1.7-11.22-5.2-15.45-3.4-4.23-8.4-7.31-15-9.24-6.4-1.93-20.5-2.9-42.2-2.9h-38.5"/>
        <rect id="rect3429" style="fill-rule:evenodd;fill:#d2aa48" ry="0" height="35.637" width="39.501" y="782.32" x="-2367.9"/>
        <rect id="rect3431" style="fill-rule:evenodd;fill:#d2aa48" ry="0" height="39.93" width="35.637" y="781.89" x="-2318.1"/>
        <rect id="rect3435" style="fill-rule:evenodd;fill:#d2aa48" ry="0" height="41.528" width="37.767" y="976.77" x="-2320.6"/>
        <path id="path2653" style="fill:#f7e587" d="m-2401.8 797.61h94.4c18.7 0.01 32.6 0.69 41.7 2.07 9.3 1.29 17.5 4.05 24.7 8.28 7.3 4.23 13.4 9.89 18.2 16.97 4.8 6.99 7.3 14.86 7.3 23.59 0 9.48-3 18.17-9.1 26.08-5.9 7.91-13.9 13.84-24.1 17.8 14.4 3.58 25.4 9.7 33.2 18.35 7.7 8.64 11.6 18.81 11.6 30.49 0 9.19-2.6 18.16-7.6 26.9-4.9 8.64-11.8 15.59-20.5 20.83-8.6 5.15-19.2 8.33-31.9 9.52-7.9 0.74-27.1 1.2-57.5 1.38h-80.4v-202.26m47.7 33.67v46.77h31.2c18.6 0 30.2-0.23 34.7-0.69 8.2-0.83 14.5-3.22 19.2-7.18 4.7-4.04 7.1-9.33 7.1-15.86 0-6.26-2.1-11.31-6.2-15.18-3.9-3.95-9.9-6.34-17.9-7.17-4.7-0.46-18.3-0.69-40.7-0.69h-27.4m0 80.43v54.08h44.1c17.2 0 28.1-0.41 32.7-1.24 7.1-1.1 12.9-3.77 17.3-8 4.5-4.32 6.8-10.07 6.8-17.25 0-6.07-1.8-11.22-5.2-15.45s-8.4-7.31-15-9.24c-6.4-1.93-20.5-2.9-42.2-2.9h-38.5"/>
        <rect id="rect2655" style="fill-rule:evenodd;fill:#f7e587" ry="0" height="35.637" width="39.501" y="780.05" x="-2370.2"/>
        <rect id="rect2657" style="fill-rule:evenodd;fill:#f7e587" ry="0" height="39.93" width="35.637" y="779.62" x="-2320.4"/>
        <rect id="rect3437" style="fill-rule:evenodd;fill:#f7e587" ry="0" height="38.194" width="39.501" y="974.94" x="-2372.7"/>
        <rect id="rect3439" style="fill-rule:evenodd;fill:#f7e587" ry="0" height="39.078" width="35.637" y="974.51" x="-2322.9"/>
        <path id="path3443" style="fill-rule:evenodd;fill:#f1e3ac" d="m-2213.8 945.49c0.4 4.29-0.7 8.45-2 12.5-1.4 4.6-3.6 8.84-6.2 12.88-2.3 3.33-5.4 6.01-8.6 8.42-3.7 2.64-7.7 4.79-11.9 6.44-5.2 1.92-10.5 3.26-15.8 4.65l-0.9-7.44c5-1.21 10-2.53 14.8-4.53 2.9-1.29 5.8-2.77 8.5-4.54 2.6-1.88 5.1-3.93 7.1-6.46 2.4-3.46 4.5-7.12 5.7-11.14 1-3.06 2-6.23 1.5-9.49l7.8-1.29z"/>
        <path id="path3445" style="fill-rule:evenodd;fill:#f1e3ac" d="m-2221.8 840.4c0 2.28 0.2 4.55 0.3 6.82 0.1 2.97-0.2 5.92-0.7 8.84-0.3 2.76-1.2 5.07-2.7 7.39-2.1 2.62-4.7 4.84-7.1 7.2-1.8 2.06-3.7 4.12-5.8 5.95-1 0.88-2 1.76-3.2 2.44-0.2 0.12-0.3 0.24-0.5 0.36l-5.6-5.48c0.1-0.13 0.3-0.26 0.4-0.38 1.1-0.83 2.2-1.37 3.2-2.25 2.1-1.45 3.7-3.46 5.5-5.3 2.1-2.09 4.2-4.12 6.3-6.23 1-1.29 1.6-2.78 1.8-4.45 0.5-2.44 0.8-4.93 0.7-7.42-0.1-2.36-0.2-4.73-0.5-7.07l7.9-0.42z"/>
      </g>
    </g>
  </g>
  <metadata>
    <rdf:RDF>
      <cc:Work>
        <dc:format>image/svg+xml</dc:format>
        <dc:type rdf:resource="http://purl.org/dc/dcmitype/StillImage"/>
        <cc:license rdf:resource="http://creativecommons.org/licenses/publicdomain/"/>
        <dc:publisher>
          <cc:Agent rdf:about="http://openclipart.org/">
            <dc:title>Openclipart</dc:title>
          </cc:Agent>
        </dc:publisher>
      </cc:Work>
      <cc:License rdf:about="http://creativecommons.org/licenses/publicdomain/">
        <cc:permits rdf:resource="http://creativecommons.org/ns#Reproduction"/>
        <cc:permits rdf:resource="http://creativecommons.org/ns#Distribution"/>
        <cc:permits rdf:resource="http://creativecommons.org/ns#DerivativeWorks"/>
      </cc:License>
    </rdf:RDF>
  </metadata>
</svg>
